<mxfile host="app.diagrams.net" modified="2022-02-13T09:36:14.608Z" agent="5.0 (Windows NT 10.0; Win64; x64) AppleWebKit/537.36 (KHTML, like Gecko) Chrome/98.0.4758.82 Safari/537.36" etag="ziQ71V0ae5wp0ukET4hp" version="16.5.6" type="github">
  <diagram id="C5RBs43oDa-KdzZeNtuy" name="第 1 页">
    <mxGraphModel dx="1221" dy="644" grid="1" gridSize="10" guides="1" tooltips="1" connect="1" arrows="1" fold="1" page="1" pageScale="1" pageWidth="827" pageHeight="1169" math="0" shadow="0">
      <root>
        <mxCell id="WIyWlLk6GJQsqaUBKTNV-0" />
        <mxCell id="WIyWlLk6GJQsqaUBKTNV-1" parent="WIyWlLk6GJQsqaUBKTNV-0" />
        <mxCell id="8h9LS431bZ5kQqi32RcY-21" style="edgeStyle=orthogonalEdgeStyle;rounded=0;orthogonalLoop=1;jettySize=auto;html=1;entryX=0.5;entryY=0;entryDx=0;entryDy=0;fontFamily=Helvetica;fontColor=#1A1A1A;strokeColor=#666666;" edge="1" parent="WIyWlLk6GJQsqaUBKTNV-1" source="8h9LS431bZ5kQqi32RcY-22" target="8h9LS431bZ5kQqi32RcY-24">
          <mxGeometry relative="1" as="geometry">
            <mxPoint x="120" y="280" as="targetPoint" />
          </mxGeometry>
        </mxCell>
        <mxCell id="8h9LS431bZ5kQqi32RcY-22" value="开始" style="rounded=1;whiteSpace=wrap;html=1;fontFamily=Helvetica;fontColor=#1A1A1A;strokeColor=#666666;" vertex="1" parent="WIyWlLk6GJQsqaUBKTNV-1">
          <mxGeometry x="60" y="180" width="120" height="40" as="geometry" />
        </mxCell>
        <mxCell id="8h9LS431bZ5kQqi32RcY-43" value="" style="edgeStyle=orthogonalEdgeStyle;rounded=0;orthogonalLoop=1;jettySize=auto;html=1;fontFamily=Helvetica;fontColor=#1A1A1A;strokeColor=#666666;" edge="1" parent="WIyWlLk6GJQsqaUBKTNV-1" source="8h9LS431bZ5kQqi32RcY-24" target="8h9LS431bZ5kQqi32RcY-42">
          <mxGeometry relative="1" as="geometry" />
        </mxCell>
        <mxCell id="8h9LS431bZ5kQqi32RcY-24" value="&lt;p&gt;点击发布文章&lt;/p&gt;" style="rounded=0;whiteSpace=wrap;html=1;fontFamily=Helvetica;fontColor=#1A1A1A;strokeColor=#666666;" vertex="1" parent="WIyWlLk6GJQsqaUBKTNV-1">
          <mxGeometry x="60" y="250" width="120" height="40" as="geometry" />
        </mxCell>
        <mxCell id="8h9LS431bZ5kQqi32RcY-25" value="" style="edgeStyle=orthogonalEdgeStyle;rounded=0;orthogonalLoop=1;jettySize=auto;html=1;fontFamily=Helvetica;fontColor=#1A1A1A;strokeColor=#666666;" edge="1" parent="WIyWlLk6GJQsqaUBKTNV-1" source="8h9LS431bZ5kQqi32RcY-26" target="8h9LS431bZ5kQqi32RcY-28">
          <mxGeometry relative="1" as="geometry" />
        </mxCell>
        <mxCell id="8h9LS431bZ5kQqi32RcY-26" value="输入文章内容" style="whiteSpace=wrap;html=1;rounded=0;fontFamily=Helvetica;fontColor=#1A1A1A;strokeColor=#666666;" vertex="1" parent="WIyWlLk6GJQsqaUBKTNV-1">
          <mxGeometry x="60" y="440" width="120" height="40" as="geometry" />
        </mxCell>
        <mxCell id="8h9LS431bZ5kQqi32RcY-27" value="" style="edgeStyle=orthogonalEdgeStyle;rounded=0;orthogonalLoop=1;jettySize=auto;html=1;fontFamily=Helvetica;fontColor=#1A1A1A;strokeColor=#666666;" edge="1" parent="WIyWlLk6GJQsqaUBKTNV-1" source="8h9LS431bZ5kQqi32RcY-28" target="8h9LS431bZ5kQqi32RcY-30">
          <mxGeometry relative="1" as="geometry" />
        </mxCell>
        <mxCell id="8h9LS431bZ5kQqi32RcY-28" value="选择发布文章" style="whiteSpace=wrap;html=1;rounded=0;fontFamily=Helvetica;fontColor=#1A1A1A;strokeColor=#666666;" vertex="1" parent="WIyWlLk6GJQsqaUBKTNV-1">
          <mxGeometry x="60" y="520" width="120" height="40" as="geometry" />
        </mxCell>
        <mxCell id="8h9LS431bZ5kQqi32RcY-29" value="" style="edgeStyle=orthogonalEdgeStyle;rounded=0;orthogonalLoop=1;jettySize=auto;html=1;fontFamily=Helvetica;fontColor=#1A1A1A;strokeColor=#666666;" edge="1" parent="WIyWlLk6GJQsqaUBKTNV-1" source="8h9LS431bZ5kQqi32RcY-30" target="8h9LS431bZ5kQqi32RcY-32">
          <mxGeometry relative="1" as="geometry" />
        </mxCell>
        <mxCell id="8h9LS431bZ5kQqi32RcY-30" value="弹出分享&lt;br&gt;选项弹窗" style="whiteSpace=wrap;html=1;rounded=0;fontFamily=Helvetica;fontColor=#1A1A1A;strokeColor=#666666;" vertex="1" parent="WIyWlLk6GJQsqaUBKTNV-1">
          <mxGeometry x="230" y="520" width="120" height="40" as="geometry" />
        </mxCell>
        <mxCell id="8h9LS431bZ5kQqi32RcY-31" value="" style="edgeStyle=orthogonalEdgeStyle;rounded=0;orthogonalLoop=1;jettySize=auto;html=1;fontFamily=Helvetica;fontColor=#1A1A1A;strokeColor=#666666;" edge="1" parent="WIyWlLk6GJQsqaUBKTNV-1" source="8h9LS431bZ5kQqi32RcY-32" target="8h9LS431bZ5kQqi32RcY-37">
          <mxGeometry relative="1" as="geometry" />
        </mxCell>
        <mxCell id="8h9LS431bZ5kQqi32RcY-32" value="选择文章标签" style="whiteSpace=wrap;html=1;rounded=0;fontFamily=Helvetica;fontColor=#1A1A1A;strokeColor=#666666;" vertex="1" parent="WIyWlLk6GJQsqaUBKTNV-1">
          <mxGeometry x="390" y="517.5" width="120" height="45" as="geometry" />
        </mxCell>
        <mxCell id="8h9LS431bZ5kQqi32RcY-35" value="" style="edgeStyle=orthogonalEdgeStyle;rounded=0;orthogonalLoop=1;jettySize=auto;html=1;entryX=1;entryY=0.5;entryDx=0;entryDy=0;fontFamily=Helvetica;fontColor=#1A1A1A;strokeColor=#666666;" edge="1" parent="WIyWlLk6GJQsqaUBKTNV-1" source="8h9LS431bZ5kQqi32RcY-37" target="8h9LS431bZ5kQqi32RcY-39">
          <mxGeometry relative="1" as="geometry">
            <Array as="points">
              <mxPoint x="600" y="630" />
            </Array>
          </mxGeometry>
        </mxCell>
        <mxCell id="8h9LS431bZ5kQqi32RcY-36" value="是" style="edgeLabel;html=1;align=center;verticalAlign=middle;resizable=0;points=[];fontFamily=Helvetica;fontColor=#1A1A1A;strokeColor=#666666;" vertex="1" connectable="0" parent="8h9LS431bZ5kQqi32RcY-35">
          <mxGeometry x="-0.2111" y="-3" relative="1" as="geometry">
            <mxPoint as="offset" />
          </mxGeometry>
        </mxCell>
        <mxCell id="8h9LS431bZ5kQqi32RcY-45" style="edgeStyle=orthogonalEdgeStyle;rounded=0;orthogonalLoop=1;jettySize=auto;html=1;entryX=1;entryY=0.5;entryDx=0;entryDy=0;fontFamily=Helvetica;fontColor=#1A1A1A;strokeColor=#666666;" edge="1" parent="WIyWlLk6GJQsqaUBKTNV-1" source="8h9LS431bZ5kQqi32RcY-37" target="8h9LS431bZ5kQqi32RcY-26">
          <mxGeometry relative="1" as="geometry">
            <Array as="points">
              <mxPoint x="600" y="460" />
            </Array>
          </mxGeometry>
        </mxCell>
        <mxCell id="8h9LS431bZ5kQqi32RcY-46" value="否" style="edgeLabel;html=1;align=center;verticalAlign=middle;resizable=0;points=[];fontFamily=Helvetica;fontColor=#1A1A1A;strokeColor=#666666;" vertex="1" connectable="0" parent="8h9LS431bZ5kQqi32RcY-45">
          <mxGeometry x="0.2447" y="4" relative="1" as="geometry">
            <mxPoint as="offset" />
          </mxGeometry>
        </mxCell>
        <mxCell id="8h9LS431bZ5kQqi32RcY-37" value="发布" style="rhombus;whiteSpace=wrap;html=1;rounded=0;fontFamily=Helvetica;fontColor=#1A1A1A;strokeColor=#666666;" vertex="1" parent="WIyWlLk6GJQsqaUBKTNV-1">
          <mxGeometry x="550" y="505" width="100" height="70" as="geometry" />
        </mxCell>
        <mxCell id="8h9LS431bZ5kQqi32RcY-38" value="" style="edgeStyle=orthogonalEdgeStyle;rounded=0;orthogonalLoop=1;jettySize=auto;html=1;fontFamily=Helvetica;fontColor=#1A1A1A;strokeColor=#666666;" edge="1" parent="WIyWlLk6GJQsqaUBKTNV-1" source="8h9LS431bZ5kQqi32RcY-39" target="8h9LS431bZ5kQqi32RcY-40">
          <mxGeometry relative="1" as="geometry" />
        </mxCell>
        <mxCell id="8h9LS431bZ5kQqi32RcY-39" value="确认发布" style="whiteSpace=wrap;html=1;rounded=0;fontFamily=Helvetica;fontColor=#1A1A1A;strokeColor=#666666;" vertex="1" parent="WIyWlLk6GJQsqaUBKTNV-1">
          <mxGeometry x="390" y="607.5" width="120" height="45" as="geometry" />
        </mxCell>
        <mxCell id="8h9LS431bZ5kQqi32RcY-40" value="结束" style="rounded=1;whiteSpace=wrap;html=1;fontFamily=Helvetica;fontColor=#1A1A1A;strokeColor=#666666;" vertex="1" parent="WIyWlLk6GJQsqaUBKTNV-1">
          <mxGeometry x="230" y="610" width="120" height="40" as="geometry" />
        </mxCell>
        <mxCell id="8h9LS431bZ5kQqi32RcY-44" value="" style="edgeStyle=orthogonalEdgeStyle;rounded=0;orthogonalLoop=1;jettySize=auto;html=1;fontFamily=Helvetica;fontColor=#1A1A1A;strokeColor=#666666;" edge="1" parent="WIyWlLk6GJQsqaUBKTNV-1" source="8h9LS431bZ5kQqi32RcY-42" target="8h9LS431bZ5kQqi32RcY-26">
          <mxGeometry relative="1" as="geometry" />
        </mxCell>
        <mxCell id="8h9LS431bZ5kQqi32RcY-42" value="选择发布类型&lt;br&gt;（帖子/分享）&lt;br&gt;进入富文本编辑器" style="rounded=0;whiteSpace=wrap;html=1;fontFamily=Helvetica;fontColor=#1A1A1A;strokeColor=#666666;" vertex="1" parent="WIyWlLk6GJQsqaUBKTNV-1">
          <mxGeometry x="60" y="330" width="120" height="80" as="geometry" />
        </mxCell>
      </root>
    </mxGraphModel>
  </diagram>
</mxfile>
